<svg xmlns="http://www.w3.org/2000/svg" width="1600" height="1000" viewBox="0 0 1600 1000" fill="none">
  <defs>
    <linearGradient id="bg" x1="120" y1="84" x2="1400" y2="928" gradientUnits="userSpaceOnUse">
      <stop stop-color="#06101F"/>
      <stop offset="0.52" stop-color="#102444"/>
      <stop offset="1" stop-color="#183B61"/>
    </linearGradient>
    <linearGradient id="moon" x1="1040" y1="140" x2="1360" y2="324" gradientUnits="userSpaceOnUse">
      <stop stop-color="#FFE4A5"/>
      <stop offset="1" stop-color="#FF9D00"/>
    </linearGradient>
  </defs>
  <rect width="1600" height="1000" fill="url(#bg)"/>
  <circle cx="1220" cy="214" r="160" fill="url(#moon)"/>
  <rect y="690" width="1600" height="310" fill="#08121F"/>
  <g fill="#DDE7F1">
    <rect x="134" y="482" width="88" height="208" rx="10"/>
    <rect x="248" y="390" width="116" height="300" rx="14"/>
    <rect x="392" y="448" width="76" height="242" rx="10"/>
    <rect x="490" y="316" width="96" height="374" rx="12"/>
    <rect x="616" y="250" width="70" height="440" rx="10"/>
    <rect x="712" y="408" width="68" height="282" rx="10"/>
    <rect x="812" y="470" width="74" height="220" rx="10"/>
    <rect x="912" y="360" width="98" height="330" rx="12"/>
    <rect x="1040" y="268" width="86" height="422" rx="12"/>
    <rect x="1152" y="432" width="72" height="258" rx="10"/>
    <rect x="1248" y="352" width="120" height="338" rx="12"/>
  </g>
  <path d="M651 158L697 688H605L651 158Z" fill="#FF9D00"/>
  <circle cx="651" cy="120" r="46" fill="#FFD27A"/>
  <path d="M651 74L676 120L651 166L626 120L651 74Z" fill="#F8FAFC"/>
  <g stroke="#4FA1C9" stroke-width="8" opacity="0.5">
    <path d="M0 744C214 723 385 732 595 765C786 795 973 834 1185 821C1349 811 1477 775 1600 724"/>
    <path d="M0 810C184 789 329 795 523 821C728 849 951 892 1154 885C1323 878 1452 844 1600 786"/>
  </g>
  <g stroke="#FFB347" stroke-width="10" stroke-linecap="round" opacity="0.92">
    <path d="M166 640H1362"/>
    <path d="M166 670H1362" opacity="0.6"/>
  </g>
</svg>
